<svg width="42" height="42" viewBox="0 0 42 42" fill="none" xmlns="http://www.w3.org/2000/svg">
<path d="M31.9635 8.06365C28.0998 4.19998 21.808 4.19998 17.9485 8.06365L7.2434 18.7605C7.17367 18.8302 7.13676 18.9246 7.13676 19.023C7.13676 19.1215 7.17367 19.2158 7.2434 19.2855L8.75687 20.799C8.82605 20.8679 8.9197 20.9065 9.01732 20.9065C9.11495 20.9065 9.20859 20.8679 9.27777 20.799L19.9829 10.1021C21.3118 8.77322 23.0795 8.04314 24.958 8.04314C26.8366 8.04314 28.6043 8.77322 29.9291 10.1021C31.258 11.431 31.9881 13.1988 31.9881 15.0732C31.9881 16.9517 31.258 18.7154 29.9291 20.0443L19.019 30.9504L17.2512 32.7181C15.5983 34.3711 12.9118 34.3711 11.2588 32.7181C10.459 31.9183 10.0202 30.856 10.0202 29.724C10.0202 28.592 10.459 27.5297 11.2588 26.7299L22.0829 15.9099C22.3577 15.6392 22.7186 15.4875 23.1041 15.4875H23.1082C23.4938 15.4875 23.8506 15.6392 24.1213 15.9099C24.3961 16.1847 24.5438 16.5457 24.5438 16.9312C24.5438 17.3127 24.392 17.6736 24.1213 17.9443L15.2743 26.7832C15.2045 26.8529 15.1676 26.9472 15.1676 27.0457C15.1676 27.1441 15.2045 27.2385 15.2743 27.3082L16.7877 28.8217C16.8569 28.8905 16.9506 28.9292 17.0482 28.9292C17.1458 28.9292 17.2395 28.8905 17.3086 28.8217L26.1516 19.9787C26.9678 19.1625 27.4149 18.0797 27.4149 16.9271C27.4149 15.7746 26.9637 14.6877 26.1516 13.8756C24.4659 12.1898 21.726 12.1939 20.0403 13.8756L18.9903 14.9297L9.22035 24.6955C8.55725 25.3547 8.03163 26.139 7.67396 27.0029C7.31629 27.8668 7.13369 28.7931 7.13676 29.7281C7.13676 31.6271 7.87914 33.4113 9.22035 34.7525C10.6108 36.1388 12.4319 36.832 14.253 36.832C16.0741 36.832 17.8952 36.1388 19.2815 34.7525L31.9635 22.0787C33.8297 20.2084 34.8633 17.7187 34.8633 15.0732C34.8674 12.4236 33.8338 9.93396 31.9635 8.06365Z" fill="white"/>
</svg>
