<svg width="29" height="29" viewBox="0 0 29 29" fill="none" xmlns="http://www.w3.org/2000/svg">
<rect width="27" height="29" fill="white"/>
<path fill-rule="evenodd" clip-rule="evenodd" d="M13 10C13 5.58172 16.5817 2 21 2C25.4183 2 29 5.58172 29 10C29 14.4183 25.4183 18 21 18C16.5817 18 13 14.4183 13 10Z" fill="#F091EE"/>
<path fill-rule="evenodd" clip-rule="evenodd" d="M2 20.5C2 16.9101 4.68629 14 8 14C11.3137 14 14 16.9101 14 20.5C14 24.0899 11.3137 27 8 27C4.68629 27 2 24.0899 2 20.5Z" fill="#F091EE"/>
<path fill-rule="evenodd" clip-rule="evenodd" d="M17 24.5C17 22.0147 19.2386 20 22 20C24.7614 20 27 22.0147 27 24.5C27 26.9853 24.7614 29 22 29C19.2386 29 17 26.9853 17 24.5Z" fill="#F091EE"/>
</svg>
