<svg width="30" height="30" viewBox="0 0 30 30" fill="none" xmlns="http://www.w3.org/2000/svg">
<rect width="30" height="30" fill="white"/>
<path fill-rule="evenodd" clip-rule="evenodd" d="M6.5 10C6.5 9.44772 6.94772 9 7.5 9H7.5125C8.06479 9 8.5125 9.44772 8.5125 10C8.5125 10.5523 8.06479 11 7.5125 11H7.5C6.94772 11 6.5 10.5523 6.5 10ZM11.5 10C11.5 9.44772 11.9477 9 12.5 9H12.5125C13.0648 9 13.5125 9.44772 13.5125 10C13.5125 10.5523 13.0648 11 12.5125 11H12.5C11.9477 11 11.5 10.5523 11.5 10ZM17.5 9C16.9477 9 16.5 9.44772 16.5 10C16.5 10.5523 16.9477 11 17.5 11H17.5125C18.0648 11 18.5125 10.5523 18.5125 10C18.5125 9.44772 18.0648 9 17.5125 9H17.5ZM6.16772 3.0499e-06C6.19505 4.54002e-06 6.22248 6.03013e-06 6.25001 6.03013e-06L18.8323 3.0499e-06C19.9404 -5.9237e-05 20.8952 -0.000112737 21.6597 0.102682C22.4791 0.212847 23.2646 0.461278 23.9017 1.09836C24.5387 1.73543 24.7872 2.52087 24.8973 3.34027C25.0001 4.10485 25.0001 5.05963 25 6.16775V13.8323C25.0001 14.9404 25.0001 15.8952 24.8973 16.6597C24.7872 17.4791 24.5387 18.2646 23.9017 18.9017C23.2646 19.5387 22.4791 19.7872 21.6597 19.8973C20.8952 20.0001 19.9404 20.0001 18.8323 20L15 20C14.858 20 14.7196 20.045 14.6048 20.1285L9.09459 24.1359C7.91073 24.9969 6.25001 24.1512 6.25001 22.6874V20C5.28256 20 4.30148 20.0266 3.34027 19.8973C2.52087 19.7872 1.73543 19.5387 1.09836 18.9017C0.461278 18.2646 0.212847 17.4791 0.102682 16.6597C-0.000112737 15.8952 -5.9237e-05 14.9404 3.0499e-06 13.8323L6.03013e-06 6.25001C6.03013e-06 6.22248 4.54002e-06 6.19505 3.0499e-06 6.16772C-5.9237e-05 5.05961 -0.000112737 4.10484 0.102682 3.34027C0.212847 2.52087 0.461278 1.73543 1.09836 1.09836C1.73543 0.461278 2.52087 0.212847 3.34027 0.102682C4.10484 -0.000112737 5.05961 -5.9237e-05 6.16772 3.0499e-06Z" fill="#F091EE"/>
</svg>
