<svg width="38" height="38" viewBox="0 0 38 38" fill="none" xmlns="http://www.w3.org/2000/svg">
<path d="M22.048 3.96467C22.6687 3.96462 23.2787 4.12677 23.8175 4.43504C24.3563 4.74331 24.8052 5.18701 25.1197 5.72217L26.4085 7.91826H29.6876C31.0521 7.91826 32.3607 8.46019 33.3257 9.42488C34.2907 10.3896 34.833 11.698 34.8334 13.0625V28.1042C34.8334 28.7799 34.7003 29.4491 34.4417 30.0734C34.1831 30.6977 33.8041 31.265 33.3262 31.7428C32.8484 32.2207 32.2811 32.5997 31.6568 32.8583C31.0325 33.1169 30.3633 33.25 29.6876 33.25H8.31258C6.94782 33.25 5.63896 32.7079 4.67393 31.7428C3.7089 30.7778 3.16675 29.4689 3.16675 28.1042V13.0625C3.16675 11.6977 3.7089 10.3889 4.67393 9.42385C5.63896 8.45882 6.94782 7.91667 8.31258 7.91667H11.6059L12.9913 5.66201C13.3099 5.14302 13.7561 4.71435 14.2875 4.41693C14.8189 4.1195 15.4176 3.96325 16.0266 3.96309H22.048V3.96467ZM22.048 6.33967H16.0266C15.8533 6.33981 15.6822 6.37787 15.5252 6.45118C15.3682 6.52448 15.2291 6.63125 15.1177 6.76401L15.0148 6.90651L13.2842 9.72484C13.1781 9.89793 13.0294 10.0409 12.8523 10.1402C12.6751 10.2394 12.4755 10.2916 12.2725 10.2917H8.31417C7.95016 10.2915 7.58968 10.363 7.25333 10.5021C6.91697 10.6413 6.61133 10.8454 6.35387 11.1027C6.0964 11.36 5.89216 11.6655 5.75282 12.0018C5.61347 12.3381 5.54175 12.6985 5.54175 13.0625V28.1042C5.54175 29.6337 6.78308 30.875 8.31258 30.875H29.6876C30.4225 30.875 31.1272 30.5831 31.6469 30.0634C32.1665 29.5438 32.4584 28.839 32.4584 28.1042V13.0625C32.4584 12.3276 32.1665 11.6229 31.6469 11.1032C31.1272 10.5836 30.4225 10.2917 29.6876 10.2917H25.7293C25.5222 10.2918 25.3188 10.2378 25.1391 10.135C24.9594 10.0323 24.8097 9.8843 24.7048 9.70584L23.0708 6.92392C22.9661 6.74569 22.8166 6.59789 22.6372 6.49514C22.4578 6.39239 22.2547 6.33826 22.048 6.33809V6.33967ZM19.0001 12.6667C20.8898 12.6667 22.702 13.4173 24.0382 14.7535C25.3744 16.0897 26.1251 17.902 26.1251 19.7917C26.1251 21.6813 25.3744 23.4936 24.0382 24.8298C22.702 26.166 20.8898 26.9167 19.0001 26.9167C17.1104 26.9167 15.2981 26.166 13.9619 24.8298C12.6258 23.4936 11.8751 21.6813 11.8751 19.7917C11.8751 17.902 12.6258 16.0897 13.9619 14.7535C15.2981 13.4173 17.1104 12.6667 19.0001 12.6667V12.6667ZM19.0001 15.0417C18.3763 15.0417 17.7586 15.1645 17.1823 15.4032C16.606 15.642 16.0824 15.9918 15.6413 16.4329C15.2002 16.874 14.8504 17.3976 14.6117 17.9739C14.3729 18.5502 14.2501 19.1679 14.2501 19.7917C14.2501 20.4155 14.3729 21.0331 14.6117 21.6094C14.8504 22.1857 15.2002 22.7094 15.6413 23.1504C16.0824 23.5915 16.606 23.9414 17.1823 24.1801C17.7586 24.4188 18.3763 24.5417 19.0001 24.5417C20.2599 24.5417 21.468 24.0412 22.3588 23.1504C23.2496 22.2596 23.7501 21.0515 23.7501 19.7917C23.7501 18.5319 23.2496 17.3237 22.3588 16.4329C21.468 15.5421 20.2599 15.0417 19.0001 15.0417V15.0417Z" fill="#333333"/>
</svg>
