<svg width="38" height="38" viewBox="0 0 38 38" fill="none" xmlns="http://www.w3.org/2000/svg">
<path d="M22.048 3.96472C22.6687 3.96467 23.2787 4.12681 23.8175 4.43508C24.3563 4.74335 24.8052 5.18705 25.1197 5.72222L26.4085 7.9183H29.6876C31.0521 7.9183 32.3607 8.46023 33.3257 9.42492C34.2907 10.3896 34.833 11.6981 34.8334 13.0626V28.1042C34.8334 28.78 34.7003 29.4491 34.4417 30.0734C34.1831 30.6978 33.8041 31.265 33.3262 31.7429C32.8484 32.2207 32.2811 32.5997 31.6568 32.8583C31.0325 33.117 30.3633 33.2501 29.6876 33.2501H8.31258C6.94782 33.2501 5.63896 32.7079 4.67393 31.7429C3.7089 30.7778 3.16675 29.469 3.16675 28.1042V13.0626C3.16675 11.6978 3.7089 10.3889 4.67393 9.4239C5.63896 8.45887 6.94782 7.91672 8.31258 7.91672H11.6059L12.9913 5.66205C13.3099 5.14307 13.7561 4.7144 14.2875 4.41697C14.8189 4.11955 15.4176 3.9633 16.0266 3.96313H22.048V3.96472ZM22.048 6.33972H16.0266C15.8533 6.33986 15.6822 6.37792 15.5252 6.45122C15.3682 6.52453 15.2291 6.6313 15.1177 6.76405L15.0148 6.90655L13.2842 9.72489C13.1781 9.89798 13.0294 10.041 12.8523 10.1402C12.6751 10.2394 12.4755 10.2916 12.2725 10.2917H8.31417C7.95016 10.2915 7.58968 10.363 7.25333 10.5022C6.91697 10.6413 6.61133 10.8454 6.35387 11.1027C6.0964 11.36 5.89216 11.6656 5.75282 12.0018C5.61347 12.3381 5.54175 12.6985 5.54175 13.0626V28.1042C5.54175 29.6337 6.78308 30.8751 8.31258 30.8751H29.6876C30.4225 30.8751 31.1272 30.5831 31.6469 30.0635C32.1665 29.5439 32.4584 28.8391 32.4584 28.1042V13.0626C32.4584 12.3277 32.1665 11.6229 31.6469 11.1033C31.1272 10.5836 30.4225 10.2917 29.6876 10.2917H25.7293C25.5222 10.2918 25.3188 10.2378 25.1391 10.1351C24.9594 10.0323 24.8097 9.88435 24.7048 9.70589L23.0708 6.92397C22.9661 6.74573 22.8166 6.59793 22.6372 6.49518C22.4578 6.39244 22.2547 6.3383 22.048 6.33813V6.33972ZM19.0001 12.6667C20.8898 12.6667 22.702 13.4174 24.0382 14.7536C25.3744 16.0898 26.1251 17.9021 26.1251 19.7917C26.1251 21.6814 25.3744 23.4937 24.0382 24.8299C22.702 26.1661 20.8898 26.9167 19.0001 26.9167C17.1104 26.9167 15.2981 26.1661 13.9619 24.8299C12.6258 23.4937 11.8751 21.6814 11.8751 19.7917C11.8751 17.9021 12.6258 16.0898 13.9619 14.7536C15.2981 13.4174 17.1104 12.6667 19.0001 12.6667V12.6667ZM19.0001 15.0417C18.3763 15.0417 17.7586 15.1646 17.1823 15.4033C16.606 15.642 16.0824 15.9919 15.6413 16.433C15.2002 16.874 14.8504 17.3977 14.6117 17.974C14.3729 18.5503 14.2501 19.1679 14.2501 19.7917C14.2501 20.4155 14.3729 21.0332 14.6117 21.6095C14.8504 22.1858 15.2002 22.7094 15.6413 23.1505C16.0824 23.5916 16.606 23.9414 17.1823 24.1801C17.7586 24.4189 18.3763 24.5417 19.0001 24.5417C20.2599 24.5417 21.468 24.0413 22.3588 23.1505C23.2496 22.2597 23.7501 21.0515 23.7501 19.7917C23.7501 18.5319 23.2496 17.3238 22.3588 16.433C21.468 15.5422 20.2599 15.0417 19.0001 15.0417V15.0417Z" fill="white"/>
</svg>
