<svg width="182" height="47" viewBox="0 0 182 47" fill="none" xmlns="http://www.w3.org/2000/svg">
<rect width="35" height="29" transform="matrix(4.37114e-08 -1 -1 -4.37114e-08 70 41)" fill="#371F3F"/>
<path fill-rule="evenodd" clip-rule="evenodd" d="M38.1566 7.22893C39.3949 4.25702 43.6051 4.25702 44.8434 7.22893C45.0851 7.80899 45.7682 8.07724 46.3466 7.8103C49.4223 6.39072 52.6093 9.57767 51.1897 12.6534C50.9228 13.2318 51.191 13.9149 51.7711 14.1566C54.743 15.3949 54.743 19.6051 51.7711 20.8434C51.191 21.0851 50.9228 21.7682 51.1897 22.3466C52.6093 25.4223 49.4223 28.6093 46.3466 27.1897C45.7682 26.9228 45.0851 27.191 44.8434 27.7711C43.6051 30.743 39.3949 30.743 38.1566 27.7711C37.9149 27.191 37.2318 26.9228 36.6534 27.1897C33.5777 28.6093 30.3907 25.4223 31.8103 22.3466C32.0772 21.7682 31.809 21.0851 31.2289 20.8434C28.257 19.6051 28.257 15.3949 31.2289 14.1566C31.809 13.9149 32.0772 13.2318 31.8103 12.6534C30.3907 9.57767 33.5777 6.39072 36.6534 7.8103C37.2318 8.07724 37.9149 7.80899 38.1566 7.22893ZM36.4874 17.5001C36.4874 14.7318 38.7315 12.4877 41.4998 12.4877C44.268 12.4877 46.5122 14.7318 46.5122 17.5001C46.5122 20.2683 44.268 22.5125 41.4998 22.5125C38.7315 22.5125 36.4874 20.2683 36.4874 17.5001Z" fill="white"/>
<path fill-rule="evenodd" clip-rule="evenodd" d="M55.4241 22.2808C55.9681 20.6975 58.1529 20.5578 58.8941 22.0589C59.0388 22.3519 59.4022 22.4684 59.6935 22.3107C61.2425 21.472 63.0021 23.0201 62.3675 24.6633C62.2482 24.9723 62.41 25.3179 62.7191 25.4241C64.3024 25.9681 64.4421 28.1529 62.941 28.8941C62.648 29.0388 62.5314 29.4022 62.6891 29.6935C63.5279 31.2425 61.9798 33.0021 60.3366 32.3675C60.0276 32.2481 59.682 32.41 59.5758 32.7191C59.0318 34.3024 56.847 34.4421 56.1058 32.9409C55.9611 32.648 55.5977 32.5314 55.3064 32.6891C53.7574 33.5279 51.9978 31.9798 52.6324 30.3366C52.7517 30.0275 52.5899 29.682 52.2808 29.5758C50.6975 29.0318 50.5578 26.847 52.0589 26.1057C52.3519 25.9611 52.4685 25.5977 52.3107 25.3064C51.472 23.7574 53.0201 21.9978 54.6633 22.6324C54.9723 22.7517 55.3179 22.5898 55.4241 22.2808ZM54.8987 27.6663C54.8068 26.2297 55.8969 24.9907 57.3335 24.8988C58.7701 24.807 60.0091 25.8971 60.1009 27.3336C60.1928 28.7702 59.1027 30.0092 57.6662 30.1011C56.2296 30.193 54.9906 29.1029 54.8987 27.6663Z" fill="white"/>
</svg>
