<svg width="34" height="34" viewBox="0 0 34 34" fill="none" xmlns="http://www.w3.org/2000/svg">
<rect width="34" height="34" fill="#313131"/>
<path fill-rule="evenodd" clip-rule="evenodd" d="M19.1889 1.22834C17.3703 -0.409446 14.6297 -0.409446 12.8111 1.22834L0.537034 12.2817C-0.123417 12.8765 -0.182906 13.901 0.404162 14.5702C0.99123 15.2393 2.00254 15.2995 2.663 14.7048L3.20002 14.2212L3.20001 23.3259C3.19993 24.7629 3.19986 26.001 3.33144 26.9925C3.47245 28.0551 3.79044 29.0736 4.6059 29.8998C5.42136 30.7259 6.42672 31.0481 7.47555 31.1909C8.4542 31.3242 9.6763 31.3242 11.0947 31.3241H20.9053C22.3237 31.3242 23.5458 31.3242 24.5245 31.1909C25.5733 31.0481 26.5786 30.7259 27.3941 29.8998C28.2096 29.0736 28.5276 28.0551 28.6686 26.9925C28.8001 26.001 28.8001 24.7629 28.8 23.3259L28.8 14.2212L29.337 14.7048C29.9975 15.2995 31.0088 15.2393 31.5958 14.5702C32.1829 13.901 32.1234 12.8765 31.463 12.2817L19.1889 1.22834ZM14.8 20.9772C14.2477 20.9772 13.8 21.4249 13.8 21.9772V26.4611C13.8 27.0134 13.3523 27.4611 12.8 27.4611C12.2477 27.4611 11.8 27.0134 11.8 26.4611V21.9772C11.8 20.3203 13.1431 18.9772 14.8 18.9772H17.2C18.8568 18.9772 20.2 20.3203 20.2 21.9772V26.4611C20.2 27.0134 19.7523 27.4611 19.2 27.4611C18.6477 27.4611 18.2 27.0134 18.2 26.4611V21.9772C18.2 21.4249 17.7523 20.9772 17.2 20.9772H14.8Z" fill="#E935FF"/>
</svg>
