<svg width="39" height="45" viewBox="0 0 39 45" fill="none" xmlns="http://www.w3.org/2000/svg">
<rect width="24" height="24" transform="translate(15)" fill="#292929"/>
<path fill-rule="evenodd" clip-rule="evenodd" d="M30.2211 40.8592C30.3604 41.4335 30.5042 42.0268 30.6545 42.6402C30.9223 43.7338 31.9353 44.3785 32.9172 44.0802C33.899 43.782 34.4779 42.6537 34.2101 41.5602C34.0592 40.9439 33.9127 40.3372 33.7686 39.7402C32.6287 35.0186 31.6351 30.9035 29.746 27.438C27.5309 23.3746 24.1767 20.3107 18.399 17.6295C17.4596 17.1935 16.3807 17.6883 15.9892 18.7346C15.5978 19.7809 16.042 20.9825 16.9815 21.4185C22.2603 23.8682 24.895 26.4484 26.5957 29.5683C28.1944 32.501 29.0441 36.0053 30.2211 40.8592Z" fill="url(#paint0_linear_28_87)"/>
<path d="M3.93867 4.42111C15.323 1.31749 24.9599 3.44845 30.6791 9.34129C36.1953 15.025 37.6395 23.7513 33.9868 33.1784C33.2975 30.772 32.4864 28.4942 31.3777 26.4164C28.9532 21.8724 25.3111 18.5607 19.4012 15.7587C17.5587 14.8851 15.4428 15.8765 14.6751 17.973C13.9074 20.0695 14.7787 22.4772 16.6211 23.3508C21.5526 25.6889 23.7836 28.0316 25.1992 30.6848C26.2473 32.6491 26.9438 34.9226 27.7164 38C18.1286 37.5938 11.3461 35.1351 6.85859 30.4389C2.20941 25.5736 0.359568 18.663 0.00612429 10.3905C-0.11369 7.58611 1.53559 5.07625 3.93867 4.42111Z" fill="url(#paint1_linear_28_87)"/>
<defs>
<linearGradient id="paint0_linear_28_87" x1="29.3802" y1="26.4392" x2="22.0451" y2="32.4263" gradientUnits="userSpaceOnUse">
<stop stop-color="#E136D3"/>
<stop offset="1" stop-color="#82FB4D"/>
</linearGradient>
<linearGradient id="paint1_linear_28_87" x1="18" y1="3" x2="18" y2="38" gradientUnits="userSpaceOnUse">
<stop stop-color="#E136D3"/>
<stop offset="1" stop-color="#82FB4D"/>
</linearGradient>
</defs>
</svg>
