<svg width="46" height="50" viewBox="0 0 46 50" fill="none" xmlns="http://www.w3.org/2000/svg">
<rect width="24" height="24" transform="translate(22)" fill="white"/>
<path fill-rule="evenodd" clip-rule="evenodd" d="M30.2211 45.8592C30.3604 46.4335 30.5042 47.0268 30.6545 47.6402C30.9223 48.7338 31.9353 49.3785 32.9172 49.0802C33.899 48.782 34.4779 47.6537 34.2101 46.5602C34.0592 45.9439 33.9127 45.3372 33.7686 44.7402C32.6287 40.0186 31.6351 35.9035 29.746 32.438C27.5309 28.3746 24.1767 25.3107 18.399 22.6295C17.4596 22.1935 16.3807 22.6883 15.9892 23.7346C15.5978 24.7809 16.042 25.9825 16.9815 26.4185C22.2603 28.8682 24.895 31.4484 26.5957 34.5683C28.1944 37.501 29.0441 41.0053 30.2211 45.8592Z" fill="url(#paint0_linear_31_1307)"/>
<path d="M3.93867 9.42111C15.323 6.31749 24.9599 8.44845 30.6791 14.3413C36.1953 20.025 37.6395 28.7513 33.9868 38.1784C33.2975 35.772 32.4864 33.4942 31.3777 31.4164C28.9532 26.8724 25.3111 23.5607 19.4012 20.7587C17.5587 19.8851 15.4428 20.8765 14.6751 22.973C13.9074 25.0695 14.7787 27.4772 16.6211 28.3508C21.5526 30.6889 23.7836 33.0316 25.1992 35.6848C26.2473 37.6491 26.9438 39.9226 27.7164 43C18.1286 42.5938 11.3461 40.1351 6.85859 35.4389C2.20941 30.5736 0.359568 23.663 0.00612429 15.3905C-0.11369 12.5861 1.53559 10.0762 3.93867 9.42111Z" fill="url(#paint1_linear_31_1307)"/>
<defs>
<linearGradient id="paint0_linear_31_1307" x1="29.3802" y1="31.4392" x2="22.0451" y2="37.4263" gradientUnits="userSpaceOnUse">
<stop stop-color="#E136D3"/>
<stop offset="1" stop-color="#82FB4D"/>
</linearGradient>
<linearGradient id="paint1_linear_31_1307" x1="18" y1="8" x2="18" y2="43" gradientUnits="userSpaceOnUse">
<stop stop-color="#E136D3"/>
<stop offset="1" stop-color="#82FB4D"/>
</linearGradient>
</defs>
</svg>
