<svg width="30" height="30" viewBox="0 0 30 30" fill="none" xmlns="http://www.w3.org/2000/svg">
<path d="M15 2.8125C12.5895 2.8125 10.2332 3.52728 8.22899 4.86646C6.22477 6.20564 4.66267 8.10907 3.74022 10.336C2.81778 12.563 2.57643 15.0135 3.04668 17.3777C3.51694 19.7418 4.67769 21.9134 6.38214 23.6179C8.08659 25.3223 10.2582 26.4831 12.6223 26.9533C14.9865 27.4236 17.437 27.1822 19.664 26.2598C21.8909 25.3373 23.7944 23.7752 25.1335 21.771C26.4727 19.7668 27.1875 17.4105 27.1875 15C27.1813 11.7696 25.8953 8.67324 23.611 6.38898C21.3268 4.10472 18.2304 2.81869 15 2.8125V2.8125ZM16.4063 20.625C16.4063 20.8736 16.3075 21.1121 16.1317 21.2879C15.9559 21.4637 15.7174 21.5625 15.4688 21.5625C15.2201 21.5625 14.9817 21.4637 14.8058 21.2879C14.63 21.1121 14.5313 20.8736 14.5313 20.625V11.5898L13.1719 12.5039C12.9636 12.6407 12.7096 12.6891 12.4657 12.6385C12.2217 12.588 12.0079 12.4426 11.8711 12.2344C11.7343 12.0261 11.6859 11.7721 11.7365 11.5282C11.787 11.2842 11.9324 11.0703 12.1406 10.9336L14.9531 9.05859C15.0955 8.96813 15.2589 8.91625 15.4274 8.90803C15.5959 8.89981 15.7636 8.93554 15.9141 9.01172C16.0639 9.09262 16.189 9.21281 16.2757 9.3594C16.3624 9.50599 16.4075 9.67344 16.4063 9.84375V20.625Z" fill="#F24E1E"/>
</svg>
