<svg width="30" height="30" viewBox="0 0 30 30" fill="none" xmlns="http://www.w3.org/2000/svg">
<path d="M15 2.8125C12.5895 2.8125 10.2332 3.52728 8.22899 4.86646C6.22477 6.20564 4.66267 8.10907 3.74022 10.336C2.81778 12.563 2.57643 15.0135 3.04668 17.3777C3.51694 19.7418 4.67769 21.9134 6.38214 23.6179C8.08659 25.3223 10.2582 26.4831 12.6223 26.9533C14.9865 27.4236 17.437 27.1822 19.664 26.2598C21.8909 25.3373 23.7944 23.7752 25.1335 21.771C26.4727 19.7668 27.1875 17.4105 27.1875 15C27.1813 11.7696 25.8953 8.67324 23.611 6.38898C21.3268 4.10472 18.2304 2.81869 15 2.8125V2.8125ZM14.5195 13.5938C15.2126 13.5955 15.8945 13.7679 16.5051 14.0957C17.1156 14.4236 17.636 14.8968 18.0202 15.4736C18.4044 16.0504 18.6406 16.7129 18.708 17.4027C18.7753 18.0924 18.6716 18.7882 18.4062 19.4283C18.1408 20.0685 17.7217 20.6334 17.1861 21.0732C16.6504 21.5129 16.0147 21.8139 15.3351 21.9496C14.6554 22.0853 13.9529 22.0514 13.2894 21.8511C12.626 21.6507 12.0222 21.29 11.5313 20.8008C11.4365 20.7163 11.3599 20.6135 11.3061 20.4985C11.2523 20.3836 11.2223 20.2589 11.2181 20.132C11.2139 20.0051 11.2356 19.8787 11.2817 19.7605C11.3278 19.6422 11.3974 19.5345 11.4864 19.444C11.5753 19.3534 11.6818 19.2819 11.7992 19.2337C11.9166 19.1855 12.0426 19.1617 12.1695 19.1636C12.2965 19.1656 12.4217 19.1933 12.5376 19.245C12.6534 19.2968 12.7576 19.3716 12.8438 19.4648C13.0636 19.6851 13.3248 19.8595 13.6125 19.9782C13.9001 20.0969 14.2084 20.1574 14.5195 20.1562C14.8289 20.1571 15.1354 20.0965 15.421 19.9778C15.7067 19.8591 15.966 19.6847 16.1836 19.4648C16.4026 19.249 16.5764 18.9917 16.6951 18.7081C16.8138 18.4244 16.8749 18.12 16.8749 17.8125C16.8749 17.505 16.8138 17.2006 16.6951 16.9169C16.5764 16.6333 16.4026 16.376 16.1836 16.1602C15.966 15.9403 15.7067 15.7659 15.421 15.6472C15.1354 15.5285 14.8289 15.4679 14.5195 15.4688C14.2084 15.4676 13.9001 15.5281 13.6125 15.6468C13.3248 15.7655 13.0636 15.9399 12.8438 16.1602C12.7027 16.2986 12.5215 16.389 12.3261 16.4183C12.1306 16.4477 11.9308 16.4145 11.7554 16.3235C11.5799 16.2325 11.4377 16.0884 11.349 15.9117C11.2604 15.7351 11.2298 15.5349 11.2617 15.3398L12.1758 9.69141C12.2119 9.472 12.3249 9.27259 12.4944 9.12876C12.664 8.98494 12.8792 8.90607 13.1016 8.90625H17.8125C18.0611 8.90625 18.2996 9.00502 18.4754 9.18084C18.6512 9.35665 18.75 9.59511 18.75 9.84375C18.75 10.0924 18.6512 10.3308 18.4754 10.5067C18.2996 10.6825 18.0611 10.7812 17.8125 10.7812H13.8984L13.418 13.7344C13.7777 13.6409 14.1479 13.5936 14.5195 13.5938V13.5938Z" fill="#F24E1E"/>
</svg>
