<svg width="30" height="30" viewBox="0 0 30 30" fill="none" xmlns="http://www.w3.org/2000/svg">
<path d="M15 2.8125C12.5895 2.8125 10.2332 3.52728 8.22899 4.86646C6.22477 6.20564 4.66267 8.10907 3.74022 10.336C2.81778 12.563 2.57643 15.0135 3.04668 17.3777C3.51694 19.7418 4.67769 21.9134 6.38214 23.6179C8.08659 25.3223 10.2582 26.4831 12.6223 26.9533C14.9865 27.4236 17.437 27.1822 19.664 26.2598C21.8909 25.3373 23.7944 23.7752 25.1335 21.771C26.4727 19.7668 27.1875 17.4105 27.1875 15C27.1813 11.7696 25.8953 8.67324 23.611 6.38898C21.3268 4.10472 18.2304 2.81869 15 2.8125V2.8125ZM18.2813 20.625C18.2813 20.8736 18.1825 21.1121 18.0067 21.2879C17.8309 21.4637 17.5924 21.5625 17.3438 21.5625C17.0951 21.5625 16.8567 21.4637 16.6808 21.2879C16.505 21.1121 16.4063 20.8736 16.4063 20.625V17.8125H11.7188C11.5692 17.8117 11.422 17.775 11.2895 17.7057C11.157 17.6364 11.043 17.5364 10.957 17.4141C10.8695 17.2917 10.813 17.1499 10.7926 17.0008C10.7722 16.8518 10.7884 16.7 10.8398 16.5586L13.6523 8.58984C13.7504 8.37639 13.9249 8.2075 14.1415 8.11659C14.3581 8.02569 14.6009 8.01939 14.8219 8.09895C15.0429 8.17851 15.226 8.33813 15.3349 8.54622C15.4438 8.75431 15.4707 8.99571 15.4102 9.22266L13.043 15.9375H16.4063V13.125C16.4063 12.8764 16.505 12.6379 16.6808 12.4621C16.8567 12.2863 17.0951 12.1875 17.3438 12.1875C17.5924 12.1875 17.8309 12.2863 18.0067 12.4621C18.1825 12.6379 18.2813 12.8764 18.2813 13.125V20.625Z" fill="#F24E1E"/>
</svg>
