<svg width="30" height="30" viewBox="0 0 30 30" fill="none" xmlns="http://www.w3.org/2000/svg">
<path d="M15 2.8125C12.5895 2.8125 10.2332 3.52728 8.22899 4.86646C6.22477 6.20564 4.66267 8.10907 3.74022 10.336C2.81778 12.563 2.57643 15.0135 3.04668 17.3777C3.51694 19.7418 4.67769 21.9134 6.38214 23.6179C8.08659 25.3223 10.2582 26.4831 12.6223 26.9533C14.9865 27.4236 17.437 27.1822 19.664 26.2598C21.8909 25.3373 23.7944 23.7752 25.1335 21.771C26.4727 19.7668 27.1875 17.4105 27.1875 15C27.1813 11.7696 25.8953 8.67324 23.611 6.38898C21.3268 4.10472 18.2304 2.81869 15 2.8125V2.8125ZM17.5195 20.8008C16.7249 21.5894 15.6508 22.0319 14.5313 22.0319C13.4117 22.0319 12.3376 21.5894 11.543 20.8008C11.3935 20.6186 11.3171 20.3874 11.3286 20.152C11.3402 19.9167 11.4389 19.694 11.6055 19.5274C11.7721 19.3608 11.9948 19.2621 12.2302 19.2505C12.4655 19.2389 12.6968 19.3153 12.8789 19.4648C13.1514 19.7323 13.4853 19.9288 13.8515 20.0371C14.2176 20.1453 14.6047 20.162 14.9788 20.0857C15.3529 20.0093 15.7026 19.8423 15.997 19.5993C16.2915 19.3563 16.5218 19.0446 16.6677 18.6918C16.8136 18.339 16.8706 17.9557 16.8338 17.5757C16.7969 17.1957 16.6673 16.8305 16.4564 16.5123C16.2455 16.194 15.9596 15.9324 15.6239 15.7505C15.2883 15.5685 14.913 15.4718 14.5313 15.4688C14.36 15.4676 14.1923 15.4202 14.0458 15.3315C13.8993 15.2428 13.7796 15.1161 13.6992 14.9648C13.6189 14.8129 13.5819 14.6418 13.5922 14.4703C13.6026 14.2988 13.6598 14.1334 13.7578 13.9922L16.0078 10.7812H12.1875C11.9389 10.7812 11.7004 10.6825 11.5246 10.5067C11.3488 10.3308 11.25 10.0924 11.25 9.84375C11.25 9.59511 11.3488 9.35665 11.5246 9.18084C11.7004 9.00502 11.9389 8.90625 12.1875 8.90625H17.8125C17.9837 8.90738 18.1515 8.95481 18.298 9.04352C18.4445 9.13224 18.5642 9.25892 18.6445 9.41016C18.7249 9.56208 18.7619 9.73316 18.7515 9.9047C18.7412 10.0762 18.6839 10.2416 18.5859 10.3828L16.1133 13.8984C16.6368 14.1146 17.1141 14.4288 17.5195 14.8242C18.3082 15.6188 18.7507 16.693 18.7507 17.8125C18.7507 18.932 18.3082 20.0062 17.5195 20.8008Z" fill="#F24E1E"/>
</svg>
