<svg width="270" height="70" viewBox="0 0 270 70" fill="none" xmlns="http://www.w3.org/2000/svg">
<path d="M0 35C0 25.6936 0 21.0404 1.22359 17.2746C3.69654 9.66363 9.66363 3.69654 17.2746 1.22359C21.0404 0 25.6936 0 35 0H235C244.306 0 248.96 0 252.725 1.22359C260.336 3.69654 266.303 9.66363 268.776 17.2746C270 21.0404 270 25.6936 270 35C270 44.3064 270 48.9596 268.776 52.7254C266.303 60.3364 260.336 66.3035 252.725 68.7764C248.96 70 244.306 70 235 70H35C25.6936 70 21.0404 70 17.2746 68.7764C9.66363 66.3035 3.69654 60.3364 1.22359 52.7254C0 48.9596 0 44.3064 0 35Z" fill="white"/>
</svg>
