<svg width="36" height="35" viewBox="0 0 36 35" fill="none" xmlns="http://www.w3.org/2000/svg">
<path d="M3.93867 1.42111C15.323 -1.68251 24.9599 0.448455 30.6791 6.34129C36.1953 12.025 37.6395 20.7513 33.9868 30.1784C33.2976 27.772 32.4864 25.4942 31.3777 23.4164C28.9532 18.8724 25.3111 15.5607 19.4012 12.7587C17.5587 11.8851 15.4428 12.8765 14.6751 14.973C13.9074 17.0695 14.7787 19.4772 16.6211 20.3508C21.5526 22.6889 23.7836 25.0316 25.1992 27.6848C26.2473 29.6491 26.9438 31.9226 27.7164 35C18.1286 34.5938 11.3461 32.1351 6.85859 27.4389C2.20941 22.5736 0.359566 15.663 0.00612259 7.39048C-0.113692 4.58611 1.53559 2.07625 3.93867 1.42111Z" fill="url(#paint0_linear_43_378)"/>
<defs>
<linearGradient id="paint0_linear_43_378" x1="18" y1="0" x2="18" y2="35" gradientUnits="userSpaceOnUse">
<stop stop-color="#E136D3"/>
<stop offset="1" stop-color="#82FB4D"/>
</linearGradient>
</defs>
</svg>
