<svg width="20" height="20" viewBox="0 0 20 20" fill="none" xmlns="http://www.w3.org/2000/svg">
<path d="M9.98593 0C11.2973 0 12.5958 0.258646 13.8074 0.761171C15.0189 1.2637 16.1198 2.00026 17.047 2.9288C18.9198 4.80408 19.9719 7.34751 19.9719 9.99956C19.9806 12.3086 19.1822 14.5479 17.715 16.3293L19.7122 18.3292C19.8508 18.4698 19.9446 18.6484 19.982 18.8424C20.0193 19.0363 19.9984 19.237 19.9219 19.4191C19.839 19.5991 19.7045 19.7502 19.5356 19.8535C19.3667 19.9568 19.171 20.0075 18.9733 19.9991H9.98593C7.33749 19.9991 4.79753 18.9456 2.92481 17.0703C1.05209 15.195 0 12.6516 0 9.99956C0 7.34751 1.05209 4.80408 2.92481 2.9288C4.79753 1.05352 7.33749 0 9.98593 0ZM9.98593 17.9992H16.5667L15.638 17.0692C15.452 16.8819 15.3476 16.6285 15.3476 16.3643C15.3476 16.1001 15.452 15.8467 15.638 15.6593C16.9455 14.3514 17.7598 12.63 17.942 10.7883C18.1242 8.94665 17.6632 7.09869 16.6373 5.55928C15.6115 4.01986 14.0844 2.88423 12.3161 2.34587C10.5479 1.80751 8.64795 1.89972 6.94 2.6068C5.23205 3.31388 3.82176 4.59207 2.94941 6.22362C2.07705 7.85516 1.7966 9.73911 2.15583 11.5545C2.51507 13.3699 3.49177 15.0044 4.91953 16.1795C6.34729 17.3547 8.13777 17.9977 9.98593 17.9992ZM4.99296 8.9996H14.9789C15.2437 8.9996 15.4977 9.10495 15.685 9.29248C15.8723 9.48001 15.9775 9.73435 15.9775 9.99956C15.9775 10.2648 15.8723 10.5191 15.685 10.7066C15.4977 10.8942 15.2437 10.9995 14.9789 10.9995H4.99296C4.72812 10.9995 4.47412 10.8942 4.28685 10.7066C4.09958 10.5191 3.99437 10.2648 3.99437 9.99956C3.99437 9.73435 4.09958 9.48001 4.28685 9.29248C4.47412 9.10495 4.72812 8.9996 4.99296 8.9996ZM6.99015 12.9994H12.9817C13.2465 12.9994 13.5005 13.1048 13.6878 13.2923C13.8751 13.4798 13.9803 13.7342 13.9803 13.9994C13.9803 14.2646 13.8751 14.5189 13.6878 14.7065C13.5005 14.894 13.2465 14.9993 12.9817 14.9993H6.99015C6.72531 14.9993 6.47131 14.894 6.28404 14.7065C6.09677 14.5189 5.99156 14.2646 5.99156 13.9994C5.99156 13.7342 6.09677 13.4798 6.28404 13.2923C6.47131 13.1048 6.72531 12.9994 6.99015 12.9994ZM12.9817 6.99969H6.99015C6.72531 6.99969 6.47131 6.89434 6.28404 6.70681C6.09677 6.51928 5.99156 6.26494 5.99156 5.99973C5.99156 5.73453 6.09677 5.48019 6.28404 5.29266C6.47131 5.10513 6.72531 4.99978 6.99015 4.99978H12.9817C13.2465 4.99978 13.5005 5.10513 13.6878 5.29266C13.8751 5.48019 13.9803 5.73453 13.9803 5.99973C13.9803 6.26494 13.8751 6.51928 13.6878 6.70681C13.5005 6.89434 13.2465 6.99969 12.9817 6.99969Z" fill="#9C1F94"/>
</svg>
