<svg width="20" height="28" viewBox="0 0 20 28" fill="none" xmlns="http://www.w3.org/2000/svg">
<path fill-rule="evenodd" clip-rule="evenodd" d="M15.2211 23.8592C15.3604 24.4335 15.5042 25.0268 15.6545 25.6402C15.9223 26.7338 16.9353 27.3785 17.9172 27.0802C18.899 26.782 19.4779 25.6537 19.2101 24.5602C19.0592 23.9439 18.9127 23.3372 18.7686 22.7402C17.6287 18.0186 16.6351 13.9035 14.746 10.438C12.5309 6.37455 9.17667 3.31071 3.39899 0.629482C2.45955 0.19352 1.38066 0.688299 0.989223 1.7346C0.597788 2.78091 1.04203 3.98252 1.98148 4.41849C7.26031 6.86821 9.89496 9.44843 11.5957 12.5683C13.1944 15.501 14.0441 19.0053 15.2211 23.8592Z" fill="url(#paint0_linear_43_377)"/>
<defs>
<linearGradient id="paint0_linear_43_377" x1="14.3802" y1="9.43916" x2="7.04512" y2="15.4263" gradientUnits="userSpaceOnUse">
<stop stop-color="#E136D3"/>
<stop offset="1" stop-color="#82FB4D"/>
</linearGradient>
</defs>
</svg>
